# xmcd CD database file
#
# Track frame offsets:
#	150
#	28281
#	46794
#	76932
#	100092
#	123088
#	143622
#	165280
#	180618
#	190646
#	205695
#	222559
#
# Disc length: 3477 seconds
#
# Revision: 0
# Processed by: cddbd v1.5.2PL0 Copyright (c) Steve Scherf et al.
# Submitted via: CDex 2.13
#
DISCID=940d930c
DTITLE=Manfred Schiegl Quartett - Schloss Fachsenfeld Konzert
DYEAR=2019
DGENRE=Jazz
TTITLE0=Harry Belafonte - The Medley
TTITLE1=Ted Grouya - Flamingo
TTITLE2=Stuart Gorell - Georgia
TTITLE3=Bobby Troup - Route 66
TTITLE4=Paul Desmond - Take Five
TTITLE5=George David Weiss - What a wonderful world
TTITLE6=Antonio Carlos Jobim - Orfeo negro
TTITLE7=Fred Ebb - John Kander - New York
TTITLE8=Homer Louis - Yakety Sax
TTITLE9=Henry Mancini - The Pink Panther
TTITLE10=Joe Garland - In the mood
TTITLE11=Claude Francois - Paul Anka - My way
EXTD=YEAR: 2019
EXTT0=
EXTT1=
EXTT2=
EXTT3=
EXTT4=
EXTT5=
EXTT6=
EXTT7=
EXTT8=
EXTT9=
EXTT10=
EXTT11=
PLAYORDER=
